<svg xmlns="http://www.w3.org/2000/svg" viewBox="0 0 290.92 165.09"><g id="Capa_2" data-name="Capa 2"><g id="Capa_1-2" data-name="Capa 1"><polygon points="139.78 15 139.78 70 159.54 70 159.54 22.65 159.54 15 139.78 15"/><polygon points="164.48 8 164.48 70 184.24 70 184.24 15.57 184.24 8 164.48 8"/><polygon points="189.19 0 189.19 70 208.95 70 208.95 7.62 208.95 0 189.19 0"/><polygon points="115.08 23 115.08 70 134.84 70 134.84 30.59 134.84 23 115.08 23"/><rect x="90.38" y="30" width="19.76" height="40"/><path d="M45.48,82.7a36.9,36.9,0,0,0,36.9,36.9h0V45.8A36.91,36.91,0,0,0,45.48,82.7Z"/><path d="M82.38,40.71V.29a82.4,82.4,0,0,0,0,164.8V124.67a42,42,0,0,1,0-84Zm-53.2,80.53C4.22,88.29,18.78,39.4,58,26.07l.15-.07h0l-.19.07C14,45,5.7,104,43.7,133.6a64.23,64.23,0,0,0,16.38,9.33A60.5,60.5,0,0,1,29.18,121.24Zm10.87-2.92a67.84,67.84,0,0,0,29.88,20.9c-18.09-4.71-34.36-18.1-41.21-35.81C16.26,71.64,36.2,38.05,67.91,28.9,30.91,43,14.24,86.15,40.05,118.32Z"/><path d="M106.11,118.28a15.62,15.62,0,0,1-15.73-11.85l8.41-3.32a11,11,0,0,0,2.46,4.81,6.25,6.25,0,0,0,4.86,1.89,8.52,8.52,0,0,0,2-.23,4.89,4.89,0,0,0,1.66-.72,3.82,3.82,0,0,0,1.17-1.23,3.13,3.13,0,0,0,.46-1.71,4.37,4.37,0,0,0-.37-1.81,4.45,4.45,0,0,0-1.23-1.54,12,12,0,0,0-2.29-1.43,37.64,37.64,0,0,0-3.61-1.52l-2.52-.91a19.23,19.23,0,0,1-3.29-1.58A14.55,14.55,0,0,1,95,94.7a11.94,11.94,0,0,1-2.23-3.29,9.81,9.81,0,0,1-.86-4.15,11.38,11.38,0,0,1,1-4.64,11,11,0,0,1,2.75-3.75,13.45,13.45,0,0,1,4.29-2.49,18,18,0,0,1,11-.08,13.36,13.36,0,0,1,3.89,2.12,10.64,10.64,0,0,1,2.55,2.89,17.79,17.79,0,0,1,1.46,3.09l-7.73,3.26a6.45,6.45,0,0,0-2-3,5.48,5.48,0,0,0-3.55-1.11,6.18,6.18,0,0,0-3.63.94A2.86,2.86,0,0,0,100.62,87,3.6,3.6,0,0,0,102,89.72a15.41,15.41,0,0,0,4.87,2.4l2.52.86a20,20,0,0,1,8.07,4.75,11.09,11.09,0,0,1,2.86,8A11.38,11.38,0,0,1,119,111.3a12.17,12.17,0,0,1-3.32,3.89,14.44,14.44,0,0,1-4.58,2.32A17.29,17.29,0,0,1,106.11,118.28Z"/><path d="M146.24,118.28a21.89,21.89,0,0,1-8.59-1.66,21.21,21.21,0,0,1-6.84-4.55,21,21,0,0,1-4.52-6.78,22.54,22.54,0,0,1,0-16.83,21,21,0,0,1,4.52-6.78,21.21,21.21,0,0,1,6.84-4.55,23,23,0,0,1,17.17,0,21.21,21.21,0,0,1,6.84,4.55,21,21,0,0,1,4.52,6.78,22.54,22.54,0,0,1,0,16.83,21,21,0,0,1-4.52,6.78,21.21,21.21,0,0,1-6.84,4.55A21.84,21.84,0,0,1,146.24,118.28Zm0-8.47a13.4,13.4,0,0,0,4.95-.92,11.63,11.63,0,0,0,4-2.63,12.23,12.23,0,0,0,2.69-4.09,14.94,14.94,0,0,0,0-10.59,12.23,12.23,0,0,0-2.69-4.09,11.63,11.63,0,0,0-4-2.63,13.4,13.4,0,0,0-4.95-.92,13.25,13.25,0,0,0-5,.92,11.64,11.64,0,0,0-4,2.63,12.39,12.39,0,0,0-2.69,4.09,14.94,14.94,0,0,0,0,10.59,12.39,12.39,0,0,0,2.69,4.09,11.64,11.64,0,0,0,4,2.63A13.25,13.25,0,0,0,146.24,109.81Z"/><path d="M189.45,118.28a18.62,18.62,0,0,1-6.76-1.17,13.64,13.64,0,0,1-5.15-3.47,15.55,15.55,0,0,1-3.26-5.58,22.89,22.89,0,0,1-1.15-7.52V76.38h8.93v24.73a10,10,0,0,0,1.89,6.24,7.37,7.37,0,0,0,11,0,10,10,0,0,0,1.89-6.24V76.38h8.93v24.16a21.53,21.53,0,0,1-1.15,7.15,16.22,16.22,0,0,1-3.26,5.61A14.57,14.57,0,0,1,196.2,117,16.76,16.76,0,0,1,189.45,118.28Z"/><path d="M213.08,76.38h10.3l14.77,25.3h.57l-.57-7.9V76.38H247v41h-9.39L221.9,90.58h-.58l.58,7.9v18.88h-8.82Z"/><path d="M255.21,76.38h14.48a25.08,25.08,0,0,1,8.87,1.49,19.16,19.16,0,0,1,6.69,4.18,18,18,0,0,1,4.21,6.47,24.64,24.64,0,0,1,0,16.71,18,18,0,0,1-4.21,6.47,19.16,19.16,0,0,1-6.69,4.18,25.08,25.08,0,0,1-8.87,1.48H255.21Zm14,32.51A16.57,16.57,0,0,0,275,108a10.64,10.64,0,0,0,4-2.49,9.91,9.91,0,0,0,2.32-3.81,16.17,16.17,0,0,0,0-9.67,9.91,9.91,0,0,0-2.32-3.81,10.64,10.64,0,0,0-4-2.49,16.57,16.57,0,0,0-5.72-.88h-5.1v24Z"/><path d="M127.55,157.61A19.91,19.91,0,0,1,111.48,165a21.31,21.31,0,0,1-8.34-1.62,20.91,20.91,0,0,1,0-38.63,21.31,21.31,0,0,1,8.34-1.62,20.11,20.11,0,0,1,8.54,1.68,21,21,0,0,1,6.58,4.87l-6.11,5.93a13.85,13.85,0,0,0-3.75-3,10.63,10.63,0,0,0-5.2-1.2,13.14,13.14,0,0,0-4.9.9,11.39,11.39,0,0,0-4,2.57,12.21,12.21,0,0,0-2.63,4,14.6,14.6,0,0,0,0,10.36,12.1,12.1,0,0,0,2.63,4,11.56,11.56,0,0,0,4,2.58,13.13,13.13,0,0,0,4.9.89,11.36,11.36,0,0,0,5.54-1.28,14,14,0,0,0,4.25-3.7Z"/><path d="M133.59,124h8.74V164.1h-8.74Z"/><path d="M158.9,164.1V132.31H147.7V124h31.13v8.29h-11.2V164.1Z"/><path d="M194.33,145.46,180.84,124h10.52l7.06,11.76H199L205.7,124h10.63l-13.26,21.44V164.1h-8.74Z"/></g></g></svg>